<svg width="187" height="187" viewBox="0 0 187 187" fill="none" xmlns="http://www.w3.org/2000/svg">
<path fill-rule="evenodd" clip-rule="evenodd" d="M81.6011 3.83744C84.5151 2.20263 88.1024 2.20263 91.0121 3.83744C105.41 11.9163 148.736 36.2339 163.137 44.3127C166.051 45.9431 167.845 48.9635 167.845 52.2331C167.845 68.3903 167.845 117.022 167.845 133.18C167.845 136.449 166.051 139.469 163.137 141.104C148.74 149.183 105.414 173.501 91.0121 181.579C88.0986 183.214 84.5107 183.214 81.6011 181.579C67.2036 173.501 23.878 149.183 9.47612 141.104C6.5665 139.469 4.77283 136.453 4.77283 133.184C4.77283 117.026 4.77283 68.3947 4.77283 52.237C4.77283 48.9679 6.5665 45.9475 9.4805 44.3127C23.8736 36.2339 67.208 11.9163 81.6011 3.83744Z" fill="#283593"/>
<path fill-rule="evenodd" clip-rule="evenodd" d="M6.07727 137.345C4.93607 135.817 4.77283 134.367 4.77283 132.415C4.77283 116.352 4.77283 67.9993 4.77283 51.9316C4.77283 48.6794 6.56213 45.6765 9.46738 44.0548C23.8134 36.0231 66.9932 11.8469 81.3392 3.81084C84.2445 2.18477 88.1797 2.21927 91.0849 3.84533C105.431 11.8765 148.465 35.8473 162.811 43.8785C163.97 44.531 164.854 45.3161 165.643 46.3499L6.07727 137.345Z" fill="#5C6BC0"/>
<path fill-rule="evenodd" clip-rule="evenodd" d="M86.3089 32.6436C119.469 32.6436 146.388 59.5569 146.388 92.7088C146.388 125.861 119.469 152.774 86.3089 152.774C53.1497 152.774 26.23 125.861 26.23 92.7088C26.23 59.5569 53.1497 32.6436 86.3089 32.6436ZM86.3089 62.676C102.886 62.676 116.349 76.1309 116.349 92.7088C116.349 109.283 102.886 122.742 86.3089 122.742C69.7315 122.742 56.2692 109.283 56.2692 92.7088C56.2692 76.1309 69.7271 62.676 86.3089 62.676Z" fill="white"/>
<path fill-rule="evenodd" clip-rule="evenodd" d="M165.635 46.3916C167.849 48.4641 167.806 51.5875 167.806 54.0458C167.806 70.3278 167.669 116.638 167.845 132.92C167.862 134.619 167.3 136.409 166.459 137.756L84.5624 92.7065L165.635 46.3916Z" fill="#3949AB"/>
<path fill-rule="evenodd" clip-rule="evenodd" d="M129.222 75.5449H133.514V109.868H129.222V75.5449ZM142.097 75.5449H146.388V109.868H142.097V75.5449Z" fill="white"/>
<path fill-rule="evenodd" clip-rule="evenodd" d="M120.64 96.998H154.971V101.288H120.64V96.998ZM120.64 84.127H154.971V88.4173H120.64V84.127Z" fill="white"/>
</svg>
