<svg width="96" height="96" viewBox="0 0 100 101" fill="none" xmlns="http://www.w3.org/2000/svg">
<g clip-path="url(#clip0_1_60)">
<path d="M100 0.272705H0V100.273H100V0.272705Z" fill="#D86613"/>
<path d="M70 62.9394V60.2727C73.2133 60.2727 80.6666 59.3127 80.6666 50.406C80.6666 45.0727 77.5333 41.726 71.3333 40.486C71.0431 40.4272 70.7806 40.2733 70.5875 40.0488C70.3944 39.8243 70.2815 39.5418 70.2666 39.246C69.96 34.046 66.9333 32.1927 64.44 32.1927C63.5938 32.2009 62.7609 32.4051 62.0068 32.7891C61.2527 33.1731 60.5977 33.7265 60.0933 34.406C59.9483 34.5948 59.7554 34.7413 59.5346 34.8303C59.3138 34.9193 59.0733 34.9476 58.8379 34.9122C58.6025 34.8768 58.3808 34.7791 58.196 34.6291C58.0111 34.4791 57.8698 34.2824 57.7866 34.0594C56.9248 31.5467 55.4969 29.2658 53.6133 27.3927C51.5728 25.2754 48.9512 23.8096 46.0789 23.1799C43.2066 22.5502 40.2122 22.7848 37.473 23.8542C34.7339 24.9236 32.3726 26.78 30.6868 29.1893C29.001 31.5985 28.0661 34.4529 28 37.3927C28.0019 37.9898 28.0375 38.5863 28.1066 39.1794C28.1456 39.5018 28.0655 39.8274 27.8814 40.095C27.6972 40.3626 27.4218 40.5538 27.1066 40.6327C24.2 41.3527 19.32 43.566 19.32 50.286C19.32 50.5527 19.32 50.7927 19.32 51.0194C19.5505 53.61 20.7657 56.0137 22.7154 57.7352C24.6651 59.4566 27.2007 60.3648 29.8 60.2727H31.3333V62.9394H29.8C26.5293 63.0223 23.3505 61.8523 20.9141 59.6687C18.4776 57.485 16.9677 54.4529 16.6933 51.1927C16.6933 50.9127 16.6933 50.6194 16.6933 50.3127C16.5776 47.6393 17.3677 45.0052 18.9359 42.8369C20.504 40.6687 22.7582 39.0933 25.3333 38.366C25.3333 38.046 25.3333 37.726 25.3333 37.3927C25.4132 33.9358 26.5112 30.5792 28.4898 27.7434C30.4684 24.9076 33.2397 22.7185 36.4565 21.4502C39.6734 20.182 43.193 19.8909 46.5745 20.6136C49.956 21.3362 53.0491 23.0404 55.4666 25.5127C57.1308 27.1601 58.4857 29.093 59.4666 31.2194C60.8692 30.1045 62.6083 29.4982 64.4 29.4994C68.1333 29.4994 72.0666 32.166 72.8 38.0594C79.5733 39.726 83.2933 44.0727 83.2933 50.3794C83.3333 59.6327 76.44 62.9394 70 62.9394Z" fill="white"/>
<path d="M60.6666 49.3794C58.8676 49.3918 57.1374 50.0724 55.812 51.2889C54.4866 52.5055 53.6606 54.1712 53.4945 55.9626C53.3283 57.7539 53.8338 59.5431 54.9128 60.9827C55.9918 62.4223 57.5673 63.4096 59.3333 63.7527V69.606H51.3333V46.846C53.1103 46.5137 54.6992 45.5298 55.7885 44.0871C56.8779 42.6444 57.3892 40.8469 57.2223 39.0468C57.0555 37.2467 56.2224 35.5738 54.8864 34.3559C53.5504 33.1381 51.8078 32.463 50 32.463C48.1922 32.463 46.4495 33.1381 45.1135 34.3559C43.7775 35.5738 42.9445 37.2467 42.7776 39.0468C42.6107 40.8469 43.1221 42.6444 44.2114 44.0871C45.3008 45.5298 46.8897 46.5137 48.6666 46.846V62.9394H40.6666V60.366C42.4436 60.0337 44.0325 59.0498 45.1218 57.6071C46.2112 56.1644 46.7226 54.3669 46.5557 52.5668C46.3888 50.7667 45.5558 49.0938 44.2198 47.8759C42.8838 46.6581 41.1411 45.983 39.3333 45.983C37.5255 45.983 35.7829 46.6581 34.4469 47.8759C33.1109 49.0938 32.2778 50.7667 32.1109 52.5668C31.9441 54.3669 32.4554 56.1644 33.5448 57.6071C34.6341 59.0498 36.223 60.0337 38 60.366V64.2727C38 64.6263 38.1405 64.9655 38.3905 65.2155C38.6406 65.4656 38.9797 65.606 39.3333 65.606H48.6666V80.2727H51.3333V72.2727H60.6666C61.0203 72.2727 61.3594 72.1322 61.6095 71.8822C61.8595 71.6321 62 71.293 62 70.9394V63.7527C63.766 63.4096 65.3415 62.4223 66.4205 60.9827C67.4995 59.5431 68.005 57.7539 67.8388 55.9626C67.6727 54.1712 66.8467 52.5055 65.5213 51.2889C64.1959 50.0724 62.4657 49.3918 60.6666 49.3794ZM34.7466 53.2594C34.744 52.3517 35.0108 51.4636 35.5131 50.7075C36.0155 49.9515 36.7309 49.3615 37.5688 49.0123C38.4067 48.6631 39.3293 48.5704 40.2199 48.7459C41.1105 48.9214 41.929 49.3571 42.5718 49.9981C43.2146 50.639 43.6528 51.4562 43.8308 52.3463C44.0089 53.2364 43.9189 54.1593 43.5721 54.9982C43.2253 55.8371 42.6375 56.5542 41.8829 57.0588C41.1283 57.5634 40.241 57.8327 39.3333 57.8327C38.1192 57.8327 36.9545 57.3513 36.0948 56.494C35.235 55.6367 34.7502 54.4735 34.7466 53.2594V53.2594ZM45.4133 39.726C45.4054 38.8172 45.6676 37.9265 46.1668 37.167C46.6659 36.4075 47.3795 35.8134 48.2168 35.4601C49.0542 35.1068 49.9777 35.0102 50.87 35.1827C51.7624 35.3551 52.5834 35.7888 53.2288 36.4286C53.8743 37.0684 54.3151 37.8856 54.4954 38.7764C54.6756 39.6672 54.5872 40.5915 54.2412 41.4319C53.8953 42.2724 53.3074 42.9911 52.5523 43.4968C51.7972 44.0026 50.9088 44.2727 50 44.2727C48.7904 44.2728 47.6298 43.795 46.7708 42.9435C45.9118 42.0919 45.4239 40.9356 45.4133 39.726V39.726ZM60.6666 61.2194C59.7595 61.2194 58.8727 60.9504 58.1184 60.4464C57.3642 59.9424 56.7763 59.226 56.4291 58.3879C56.082 57.5498 55.9911 56.6276 56.1681 55.7379C56.3451 54.8482 56.7819 54.0309 57.4234 53.3894C58.0648 52.748 58.8821 52.3111 59.7718 52.1342C60.6616 51.9572 61.5838 52.048 62.4219 52.3952C63.26 52.7423 63.9763 53.3302 64.4803 54.0845C64.9843 54.8388 65.2533 55.7255 65.2533 56.6327C65.2533 57.8492 64.7701 59.0158 63.9099 59.876C63.0497 60.7361 61.8831 61.2194 60.6666 61.2194Z" fill="white"/>
</g>
<defs>
<clipPath id="clip0_1_60">
<rect width="100" height="100" fill="white" transform="translate(0 0.272705)"/>
</clipPath>
</defs>
</svg>
