<svg width="96" height="96" viewBox="0 0 100 100" fill="none" xmlns="http://www.w3.org/2000/svg">
<g clip-path="url(#clip0_1_29)">
<path d="M100 0H0V100H100V0Z" fill="url(#paint0_linear_1_29)"/>
<path d="M36.3867 57.2534C38.0677 57.8492 39.8307 58.182 41.6133 58.24C42.7585 58.3333 43.8991 58.0114 44.8267 57.3334C45.1948 56.9967 45.4846 56.5835 45.6758 56.1228C45.867 55.6621 45.9549 55.165 45.9333 54.6667C45.9818 54.1478 45.9136 53.6246 45.7336 53.1355C45.5537 52.6464 45.2665 52.2038 44.8933 51.84C43.8882 51.1683 42.6846 50.858 41.48 50.96C40.054 50.9729 38.6298 51.0619 37.2133 51.2267V49.3334L37.7333 41.1067H47.7733V43.3334H40L39.64 48.92C40.519 48.7509 41.4115 48.6616 42.3067 48.6534C44.001 48.5531 45.6685 49.1121 46.96 50.2134C47.5277 50.7745 47.9698 51.4497 48.2571 52.1944C48.5444 52.9391 48.6704 53.7363 48.6267 54.5334C48.6561 55.3604 48.496 56.1833 48.1586 56.939C47.8212 57.6947 47.3154 58.3632 46.68 58.8934C45.2234 60.0547 43.3942 60.6471 41.5333 60.56C39.7234 60.5695 37.9323 60.1922 36.28 59.4534L36.3867 57.2534Z" fill="white"/>
<path d="M58.1733 49.2534H58.4533H58.6667C60.2522 49.1426 61.8191 49.649 63.04 50.6667C63.582 51.1766 64.0061 51.7988 64.2825 52.4897C64.5588 53.1806 64.6809 53.9236 64.64 54.6667C64.661 55.4836 64.4939 56.2944 64.1518 57.0365C63.8096 57.7786 63.3015 58.4321 62.6667 58.9467C61.1717 60.0789 59.3265 60.6499 57.4533 60.56C55.6927 60.5497 53.9536 60.1728 52.3467 59.4534V57.2534C53.9862 57.8496 55.7097 58.1826 57.4533 58.24C58.6051 58.3171 59.7472 57.9867 60.68 57.3067C61.0597 56.9787 61.3583 56.5673 61.5526 56.1047C61.7469 55.6421 61.8316 55.1408 61.8 54.64C61.8 52.4267 60.4 51.32 57.6 51.32C56.7093 51.3152 55.8191 51.3598 54.9333 51.4534V49.64L60.7067 43.3334H52.64V41.08H63.84V43.2533L58.1733 49.2534Z" fill="white"/>
<path d="M50 75.3333C49.7652 75.3309 49.5352 75.2665 49.3333 75.1467C45.0121 72.5885 40.2868 70.7849 35.36 69.8133C32.5467 69.3067 23.36 67.1467 23.36 60.48C23.36 57.4667 24.52 55.4667 26.0267 52.9333C28.2345 49.6958 29.4866 45.9023 29.64 41.9867C29.6262 38.2296 28.524 34.5571 26.4667 31.4133C26.3161 31.1766 26.2441 30.8983 26.2608 30.6182C26.2776 30.3381 26.3823 30.0705 26.56 29.8533L28.6933 27.1867C28.8921 26.9416 29.1713 26.7749 29.4814 26.7163C29.7914 26.6578 30.1122 26.711 30.3867 26.8667C33.1223 28.4548 36.2236 29.3048 39.3867 29.3333C42.9136 29.3845 46.3634 28.3 49.2267 26.24C49.4525 26.0792 49.7228 25.9928 50 25.9928C50.2772 25.9928 50.5475 26.0792 50.7733 26.24C53.6366 28.3 57.0864 29.3845 60.6133 29.3333C63.7866 29.3054 66.8978 28.4506 69.64 26.8533C69.9145 26.6977 70.2353 26.6444 70.5453 26.703C70.8554 26.7616 71.1346 26.9283 71.3333 27.1733L73.4667 29.84C73.6444 30.0571 73.7491 30.3248 73.7658 30.6049C73.7826 30.885 73.7106 31.1632 73.56 31.4C71.5013 34.5431 70.399 38.2161 70.3867 41.9733C70.3867 46.7067 72.3067 49.9733 73.9867 52.92C75.4667 55.4533 76.6533 57.4533 76.6533 60.4667C76.6533 67.1333 67.48 69.3333 64.6533 69.8C59.7266 70.7716 55.0012 72.5752 50.68 75.1333C50.4755 75.2601 50.2406 75.3293 50 75.3333ZM29.2 30.6667C31.2105 34.0473 32.2744 37.9067 32.28 41.84C32.28 47.2933 30.08 51.08 28.28 54.12C26.9467 56.48 26.0133 58.04 26.0133 60.3333C26.0133 65.08 34.16 66.7867 35.8 67.08C40.7841 68.0715 45.572 69.8732 49.9733 72.4133C54.3747 69.8732 59.1626 68.0715 64.1467 67.08C65.7867 66.7867 73.9333 65.08 73.9333 60.3333C73.9333 58.04 73.0267 56.48 71.6667 54.12C69.8933 51.08 67.6667 47.2933 67.6667 41.84C67.6884 37.9017 68.7708 34.042 70.8 30.6667L69.96 29.6267C67.0734 31.1168 63.8751 31.9027 60.6267 31.92C56.8471 31.9678 53.1371 30.9012 49.96 28.8533C46.7829 30.9012 43.0729 31.9678 39.2933 31.92C36.0449 31.9027 32.8466 31.1168 29.96 29.6267L29.2 30.6667Z" fill="white"/>
<path d="M50 83.3333C49.6947 83.3346 49.3982 83.2311 49.16 83.04C44.6746 79.8047 39.5671 77.5347 34.16 76.3733C23.2 74.4 16.6533 68.3733 16.6533 60.3733C16.761 56.4701 17.9874 52.6798 20.1867 49.4533C21.64 46.96 22.8533 44.8 22.8533 41.88C22.7724 39.9446 22.3006 38.0456 21.4666 36.2972C20.6325 34.5489 19.4533 32.9874 18 31.7067C17.8499 31.5953 17.7249 31.4536 17.6331 31.2908C17.5414 31.1279 17.4848 30.9476 17.4672 30.7616C17.4496 30.5755 17.4713 30.3878 17.531 30.2107C17.5906 30.0335 17.6868 29.8709 17.8133 29.7333C17.8133 29.64 25.64 20.2533 27.4133 17.8133C27.532 17.6464 27.6876 17.509 27.8679 17.4119C28.0483 17.3148 28.2486 17.2605 28.4533 17.2533C28.656 17.2363 28.86 17.2659 29.0495 17.3399C29.239 17.4139 29.409 17.5302 29.5467 17.68C30.7604 19.1195 32.256 20.2952 33.9415 21.1344C35.627 21.9737 37.4665 22.4589 39.3467 22.56C43.0667 22.56 46.0133 20.9067 48.8533 17.2267C48.9885 17.0643 49.1577 16.9337 49.3489 16.8441C49.5402 16.7545 49.7488 16.708 49.96 16.708C50.1712 16.708 50.3798 16.7545 50.5711 16.8441C50.7623 16.9337 50.9315 17.0643 51.0667 17.2267C53.92 20.96 56.8533 22.56 60.5733 22.56C62.4535 22.4589 64.293 21.9737 65.9785 21.1344C67.664 20.2952 69.1596 19.1195 70.3733 17.68C70.511 17.5302 70.681 17.4139 70.8705 17.3399C71.06 17.2659 71.264 17.2363 71.4667 17.2533C71.6714 17.2605 71.8717 17.3148 72.0521 17.4119C72.2324 17.509 72.388 17.6464 72.5067 17.8133C74.28 20.2533 82.04 29.64 82.1067 29.7333C82.2284 29.8729 82.3197 30.0362 82.3748 30.213C82.4299 30.3897 82.4475 30.576 82.4267 30.76C82.3848 31.1287 82.2035 31.4674 81.92 31.7067C80.4667 32.9874 79.2875 34.5489 78.4534 36.2972C77.6194 38.0456 77.1476 39.9446 77.0667 41.88C77.0667 44.8 78.32 46.96 79.7333 49.4533C81.9326 52.6798 83.159 56.4701 83.2667 60.3733C83.2667 68.3733 76.72 74.4 65.76 76.3733C60.354 77.5256 55.2491 79.7965 50.7733 83.04C50.5532 83.2173 50.2824 83.32 50 83.3333ZM20.8133 30.52C23.8285 33.5493 25.5658 37.6204 25.6667 41.8933C25.6667 45.56 24.1067 48.2533 22.6 50.8533C20.9733 53.6667 19.4267 56.3067 19.4267 60.3867C19.4267 70.1467 31.08 73 34.6533 73.64C40.16 74.7805 45.3798 77.0208 50 80.2267C54.6162 77.0225 59.8313 74.7822 65.3333 73.64C68.9067 73 80.56 70.1467 80.56 60.3867C80.56 56.3067 79.0133 53.72 77.3867 50.8533C75.88 48.1867 74.32 45.52 74.32 41.8933C74.4209 37.6204 76.1581 33.5493 79.1733 30.52C77.4267 28.4 73.3867 23.48 71.2667 20.7467C68.421 23.5759 64.6104 25.2239 60.6 25.36C58.5484 25.3659 56.5222 24.9057 54.6744 24.0141C52.8266 23.1225 51.2055 21.8229 49.9333 20.2133C48.6612 21.8229 47.04 23.1225 45.1922 24.0141C43.3444 24.9057 41.3183 25.3659 39.2667 25.36C35.2562 25.2239 31.4457 23.5759 28.6 20.7467C26.6667 23.48 22.56 28.4 20.8133 30.52Z" fill="white"/>
</g>
<defs>
<linearGradient id="paint0_linear_1_29" x1="-20.7067" y1="120.711" x2="120.715" y2="-20.7107" gradientUnits="userSpaceOnUse">
<stop stop-color="#4D27A8"/>
<stop offset="1" stop-color="#A166FF"/>
</linearGradient>
<clipPath id="clip0_1_29">
<rect width="100" height="100" fill="white"/>
</clipPath>
</defs>
</svg>
