<svg width="96" height="96" viewBox="0 0 100 101" fill="none" xmlns="http://www.w3.org/2000/svg">
<g clip-path="url(#clip0_1_12)">
<path d="M100 0.272705H0V100.273H100V0.272705Z" fill="url(#paint0_linear_1_12)"/>
<path d="M64.6 37.9127C64.6 34.046 57.0133 32.2594 49.9333 32.2594C42.8533 32.2594 35.2667 34.046 35.2667 37.9127C35.2609 38.106 35.2833 38.2992 35.3333 38.486V62.5527C35.2667 66.5527 42.8667 68.2594 50 68.2594C57.1333 68.2594 64.6667 66.4994 64.6667 62.6327V37.9127H64.6ZM49.96 34.9394C57.7333 34.9394 61.96 37.0594 61.96 37.926C61.96 38.7927 57.76 40.9127 49.96 40.9127C42.16 40.9127 37.96 38.806 37.96 37.926C37.96 37.046 42.1867 34.9394 49.96 34.9394ZM61.96 62.646C61.96 63.4994 57.7467 65.606 49.96 65.606C42.1733 65.606 37.96 63.4994 37.96 62.646V58.4327C40.7733 59.966 45.4933 60.6994 49.96 60.6994C54.4267 60.6994 59.1067 59.9794 61.96 58.4727V62.646ZM61.96 55.0594C61.96 55.9127 57.76 58.046 49.96 58.046C42.16 58.046 37.96 55.9127 37.96 55.0594H38V49.966C40.8133 51.486 45.5333 52.2194 50 52.2194C54.4667 52.2194 59.1467 51.4994 62 49.9927L61.96 55.0594ZM61.96 46.566C61.96 47.4327 57.76 49.566 49.96 49.566C42.16 49.566 37.96 47.4327 37.96 46.566H38V41.366C40.84 42.8727 45.5067 43.566 50 43.566C54.4933 43.566 59.2133 42.846 62 41.3127L61.96 46.566Z" fill="white"/>
<path d="M21.2133 80.9527H30V83.6194H18C17.6464 83.6194 17.3072 83.4789 17.0572 83.2289C16.8071 82.9788 16.6667 82.6397 16.6667 82.2861V70.2861H19.3333V79.0461L29.3333 69.0594L31.2 70.9394L21.2133 80.9527Z" fill="white"/>
<path d="M83.3333 70.286V82.286C83.3333 82.6396 83.1928 82.9788 82.9428 83.2288C82.6927 83.4789 82.3536 83.6194 82 83.6194H70V80.9527H78.7866L68.9333 71.0727L70.8133 69.206L80.6666 79.046V70.286H83.3333Z" fill="white"/>
<path d="M83.3333 18.286V30.286H80.6666V21.486L70.8133 31.3394L68.9333 29.4594L78.7733 19.6194H70V16.9527H82C82.3536 16.9527 82.6927 17.0932 82.9428 17.3432C83.1928 17.5933 83.3333 17.9324 83.3333 18.286Z" fill="white"/>
<path d="M31.2 29.606L29.3333 31.4727L19.3333 21.486V30.2594H16.6667V18.2594C16.6667 17.9058 16.8071 17.5666 17.0572 17.3166C17.3072 17.0665 17.6464 16.926 18 16.926H30V19.5927H21.2133L31.2 29.606Z" fill="white"/>
<path d="M29.5467 62.2194C21.4 59.2861 16.7334 54.8061 16.7334 49.9394C16.7334 45.0727 21.4 40.6061 29.5467 37.6594L30.4534 40.1661C23.5334 42.6594 19.4 46.3127 19.4 49.9394C19.4 53.5661 23.5334 57.2194 30.4534 59.7127L29.5467 62.2194Z" fill="white"/>
<path d="M69.7067 62.5127L68.8533 59.9794C76.2533 57.4861 80.6667 53.7261 80.6667 49.9394C80.6667 46.1527 76.2533 42.3927 68.8533 39.8861L69.7067 37.3661C78.36 40.2727 83.3334 44.8861 83.3334 49.9394C83.3334 54.9927 78.36 59.5794 69.7067 62.5127Z" fill="white"/>
</g>
<defs>
<linearGradient id="paint0_linear_1_12" x1="-20.7067" y1="120.979" x2="120.72" y2="-20.4473" gradientUnits="userSpaceOnUse">
<stop stop-color="#2E27AD"/>
<stop offset="1" stop-color="#527FFF"/>
</linearGradient>
<clipPath id="clip0_1_12">
<rect width="100" height="100" fill="white" transform="translate(0 0.272705)"/>
</clipPath>
</defs>
</svg>
